Plot: In 1453, the Byzantine capital of Constantinople is surrounded by Ottoman Turks. The city is but a shadow of its former glory due to the empire's ever receding coffers, while the Ottoman Empire continues to grow rich. After years of tolerating the existance of Byzantium, the ambitious sultan, Mehmet II launches his campaign to end the Byzantine Empire and take Constantinople for the Ottomans, resulting in arguably the greatest siege of that age.

Audio: Turkish.

Subtitles: ENGLISH, DEUTSCH and TURKISH.

IMDB: http://www.imdb.com/title/tt1783232/


General
Complete name                    : Fetih.1453.2012.DVDRip.XviD.AC3-MeRCuRY
Format                           : AVI
Format/Info                      : Audio Video Interleave
Format profile                   : OpenDML
File size                        : 2.47 GiB
Duration                         : 2h 36mn
Overall bit rate                 : 2 263 Kbps
Writing application              : VirtualDubMod 1.5.10.2 (build 2540/release)
Writing library                  : VirtualDubMod build 2540/release

Video
ID                               : 0
Format                           : MPEG-4 Visual
Format profile                   : Advanced Simple@L5
Format settings, BVOP            : Yes
Format settings, QPel            : No
Format settings, GMC             : No warppoints
Format settings, Matrix          : Default (H.263)
Codec ID                         : XVID
Codec ID/Hint                    : XviD
Duration                         : 2h 36mn
Bit rate                         : 1 803 Kbps
Width                            : 720 pixels
Height                           : 304 pixels
Display aspect ratio             : 2.35:1
Frame rate                       : 25.000 fps
Color space                      : YUV
Chroma subsampling               : 4:2:0
Bit depth                        : 8 bits
Scan type                        : Progressive
Compression mode                 : Lossy
Bits/(Pixel*Frame)               : 0.329
Stream size                      : 1.97 GiB (80%)
Writing library                  : XviD 1.2.1 (UTC 2008-12-04)

Audio
ID                               : 1
Format                           : AC-3
Format/Info                      : Audio Coding 3
Mode extension                   : CM (complete main)
Codec ID                         : 2000
Duration                         : 2h 36mn
Bit rate mode                    : Constant
Bit rate                         : 448 Kbps
Channel(s)                       : 6 channels
Channel positions                : Front: L C R, Side: L R, LFE
Sampling rate                    : 48.0 KHz
Bit depth                        : 16 bits
Compression mode                 : Lossy
Stream size                      : 500 MiB (20%)
Alignment                        : Split accross interleaves
Interleave, duration             : 40 ms (1.00 video frame)
Interleave, preload duration     : 500 ms
